# xmcd
#
# Track frame offsets: 
#        150
#        17057
#        38029
#        53450
#        73204
#        97328
#        117486
#        134066
#        150985
#        171959
#        187838
#        209706
#        229826
#
# Disc length: 3301 seconds
#
# Revision: 0
# Processed by: cddbd v1.5.2PL0 Copyright (c) Steve Scherf et al.
# Submitted via: ExactAudioCopyFreeDBPlugin 1.0
#
DISCID=ba0ce30d
DTITLE=Francis Cabrel - Des roses and des orties
DYEAR=2008
DGENRE=Classic Rock
TTITLE0=La Robe and l'Échelle
TTITLE1=Les Cardinaux en costume
TTITLE2=Le Chêne liège
TTITLE3=Le Cygne blanc
TTITLE4=Des hommes pareils
TTITLE5=Mademoiselle l'aventure
TTITLE6=Des roses and des orties
TTITLE7=Né dans le Bayou
TTITLE8=African Tour
TTITLE9=Madame n'aime pas
TTITLE10=Des gens formidables
TTITLE11=L'Ombre au tableau
TTITLE12=Elle m'appartient (C'est une artiste)
EXTD=Info URL: http://www.amazon.fr/gp/product/B00132CFZ2\nBarcode: 88
EXTD=6972714721\nRelease date: 2008-03-31\nRelease country: FR\nReleas
EXTD=e label: Columbia\nRelease catalog#: 88697271472\n
EXTT0=
EXTT1=
EXTT2=
EXTT3=
EXTT4=
EXTT5=
EXTT6=
EXTT7=
EXTT8=
EXTT9=
EXTT10=
EXTT11=
EXTT12=
PLAYORDER=
